<svg width="684" height="324" viewBox="0 0 684 324" fill="none" xmlns="http://www.w3.org/2000/svg">
<path d="M0 51H596V305H0V51Z" fill="#2B2C34"/>
<g clip-path="url(#clip0)">
<path d="M452.64 121.19L436.008 79.0195C448.085 75.2662 455.078 73.8932 468.192 73.2979V118.647C461.959 118.986 458.544 119.53 452.64 121.19Z" fill="#1F4EB4"/>
<path d="M474.864 118.559L474.736 73.3418C487.383 74.0829 494.412 75.2589 506.873 79.3126L490.312 121.652C484.37 119.777 480.982 119.085 474.864 118.559Z" fill="#FF1546"/>
<path d="M496.488 124.157L513.336 81.7744C525.315 87.0642 531.264 90.9601 541.2 98.7275L510.096 132.634C505.232 128.871 502.324 126.943 496.488 124.157Z" fill="#FDB714"/>
<path d="M514.848 137.084L546.384 103.602C555.635 112.581 559.765 118.169 565.824 128.819L524.352 149.375C521.149 144.172 519.111 141.448 514.848 137.084Z" fill="#0ACF83"/>
<path d="M527.377 155.521L569.065 134.965C574.231 146.513 575.995 153.342 577.921 165.904L531.481 170.143C530.57 164.279 529.671 161.081 527.377 155.521Z" fill="#FF4F6A"/>
<path d="M530.832 191.546C531.872 185.916 532.203 182.644 532.128 176.5L578.568 172.262C579.145 184.581 578.511 191.582 575.76 204.261L530.832 191.546Z" fill="#FF7262"/>
<path d="M522.408 211.466C525.453 206.625 526.887 203.714 528.888 198.115L573.816 210.618C569.796 222.379 566.677 228.597 559.56 239.015L522.408 211.466Z" fill="#65BBD7"/>
<path d="M555.672 244.524L518.304 216.976C514.199 221.507 511.731 223.816 507.072 227.571L531.48 266.563C542.289 258.982 547.648 254.201 555.672 244.524Z" fill="#C0DF7E"/>
<path d="M525.432 270.166L501.024 231.386C495.728 233.976 492.627 235.257 486.768 237.107L495.408 282.033C507.786 279.013 514.364 276.402 525.432 270.166Z" fill="#D91B5F"/>
<path d="M464.087 238.803C470.244 239.193 473.697 239.077 479.855 238.379L488.495 283.305C475.289 285.231 468.033 285.389 455.447 283.517L464.087 238.803Z" fill="#EC8134"/>
<path d="M417.863 271.014L442.055 232.021C447.54 234.798 450.867 235.98 457.175 237.531L448.535 282.457C435.475 279.421 428.68 277.02 417.863 271.014Z" fill="#E01A83"/>
<path d="M387.408 245.796L424.344 218.035C428.463 222.726 431.142 224.963 436.224 228.631L411.816 267.411C401.133 260.264 395.661 255.675 387.408 245.796Z" fill="#F28E8E"/>
<path d="M383.304 240.498C375.957 229.701 372.528 223.31 368.184 211.042L412.68 198.539C414.902 204.332 416.587 207.467 420.024 212.949L383.304 240.498Z" fill="#FFA023"/>
<path d="M366.456 204.685C363.598 192.42 362.823 185.306 363.432 172.05L409.44 176.288C409.323 182.853 409.685 186.266 410.952 191.97L366.456 204.685Z" fill="#5CC279"/>
<path d="M364.08 165.48L410.088 169.295C411.365 163.453 412.322 160.202 414.624 154.461L373.584 133.905C368.13 145.813 365.967 152.707 364.08 165.48Z" fill="#2AA8D0"/>
<path d="M376.607 128.184C383.038 117.225 387.419 111.682 396.479 102.754L427.583 136.024C423.374 140.378 421.252 143.123 417.863 148.527L376.607 128.184Z" fill="#70DF9C"/>
<path d="M432.984 131.362C437.651 127.958 440.458 126.254 445.944 123.733L429.096 81.5625C418.133 86.4364 412.113 90.0045 401.664 98.0918L432.984 131.362Z" fill="#2A7ED0"/>
</g>
<path d="M188 241.56V279H31.904V77.4H184.256V114.84H78.272V158.616H171.872V194.904H78.272V241.56H188Z" fill="white"/>
<path d="M292.384 282.456C271.84 282.456 253.216 278.04 236.512 269.208C220 260.184 206.944 247.8 197.344 232.056C187.936 216.12 183.232 198.168 183.232 178.2C183.232 158.232 187.936 140.376 197.344 124.632C206.944 108.696 220 96.312 236.512 87.48C253.216 78.456 271.936 73.944 292.672 73.944C310.144 73.944 325.888 77.016 339.904 83.16C354.112 89.304 366.016 98.136 375.616 109.656L345.664 137.304C332.032 121.56 315.136 113.688 294.976 113.688C282.496 113.688 271.36 116.472 261.568 122.04C251.776 127.416 244.096 135 238.528 144.792C233.152 154.584 230.464 165.72 230.464 178.2C230.464 190.68 233.152 201.816 238.528 211.608C244.096 221.4 251.776 229.08 261.568 234.648C271.36 240.024 282.496 242.712 294.976 242.712C315.136 242.712 332.032 234.744 345.664 218.808L375.616 246.456C366.016 258.168 354.112 267.096 339.904 273.24C325.696 279.384 309.856 282.456 292.384 282.456Z" fill="white"/>
<defs>
<clipPath id="clip0">
<rect width="216" height="217" fill="white" transform="translate(363 68)"/>
</clipPath>
</defs>
</svg>
