<svg width="298" height="120" viewBox="0 0 298 120" fill="none" xmlns="http://www.w3.org/2000/svg">
<path d="M85.9343 92.5799C87.6322 92.5799 88.9944 93.0538 90.0211 94.0014C91.0477 94.9491 91.561 96.2916 91.561 98.029C91.561 98.6805 91.4919 99.3419 91.3537 100.013L89.6065 108.897H83.9797L85.6381 100.605C85.7171 100.23 85.7566 99.8552 85.7566 99.4801C85.7566 98.7693 85.5789 98.2363 85.2235 97.8809C84.8879 97.5255 84.3943 97.3478 83.7428 97.3478C81.9462 97.3478 80.811 98.5028 80.3372 100.813L78.7084 108.897H73.0816L74.7697 100.605C74.8486 100.27 74.8881 99.9046 74.8881 99.5097C74.8881 98.799 74.7104 98.2659 74.3551 97.9105C74.0194 97.5354 73.5259 97.3478 72.8743 97.3478C71.058 97.3478 69.9129 98.5225 69.4391 100.872L67.8399 108.897H62.2132L65.4115 92.8465H70.7421L70.4163 94.4752C71.7391 93.2117 73.3383 92.5799 75.2139 92.5799C76.28 92.5799 77.2375 92.807 78.0865 93.2611C78.9354 93.6954 79.5869 94.337 80.041 95.186C80.7913 94.337 81.6599 93.6954 82.6471 93.2611C83.654 92.807 84.7497 92.5799 85.9343 92.5799ZM106.011 92.5799C107.195 92.5799 108.301 92.8761 109.327 93.4684C110.374 94.0409 111.213 94.88 111.845 95.9856C112.476 97.0912 112.792 98.3843 112.792 99.8651C112.792 101.622 112.397 103.211 111.608 104.633C110.838 106.035 109.781 107.14 108.439 107.95C107.116 108.759 105.665 109.164 104.086 109.164C101.756 109.164 100.117 108.434 99.1696 106.973L97.6297 114.643H92.0029L96.3562 92.8465H101.687L101.361 94.3568C102.644 93.1722 104.194 92.5799 106.011 92.5799ZM103.286 104.633C104.411 104.633 105.329 104.218 106.04 103.389C106.751 102.56 107.106 101.484 107.106 100.161C107.106 99.2136 106.83 98.4633 106.277 97.9105C105.744 97.3577 105.004 97.0813 104.056 97.0813C102.931 97.0813 102.013 97.4959 101.302 98.3251C100.591 99.1543 100.236 100.24 100.236 101.583C100.236 102.53 100.502 103.281 101.035 103.833C101.588 104.366 102.338 104.633 103.286 104.633ZM133.917 92.8465L130.718 108.897H125.388L125.713 107.387C124.43 108.572 122.88 109.164 121.064 109.164C119.879 109.164 118.764 108.878 117.717 108.305C116.691 107.713 115.862 106.864 115.23 105.758C114.598 104.653 114.282 103.35 114.282 101.849C114.282 100.112 114.667 98.5423 115.437 97.1405C116.227 95.7191 117.283 94.6036 118.606 93.7941C119.948 92.9847 121.409 92.5799 122.989 92.5799C125.319 92.5799 126.957 93.3104 127.905 94.7714L128.29 92.8465H133.917ZM123.018 104.633C124.144 104.633 125.062 104.218 125.773 103.389C126.483 102.56 126.839 101.484 126.839 100.161C126.839 99.2136 126.562 98.4633 126.01 97.9105C125.476 97.3577 124.736 97.0813 123.788 97.0813C122.663 97.0813 121.745 97.4959 121.034 98.3251C120.324 99.1543 119.968 100.24 119.968 101.583C119.968 102.53 120.235 103.281 120.768 103.833C121.321 104.366 122.071 104.633 123.018 104.633ZM147.578 92.5799C149.335 92.5799 150.737 93.0538 151.783 94.0014C152.849 94.9293 153.382 96.2719 153.382 98.029C153.382 98.6805 153.313 99.3419 153.175 100.013L151.398 108.897H145.772L147.43 100.546C147.509 100.211 147.548 99.8552 147.548 99.4801C147.548 98.0586 146.808 97.3478 145.327 97.3478C144.34 97.3478 143.531 97.6539 142.899 98.2659C142.267 98.8582 141.823 99.7565 141.566 100.961L139.967 108.897H134.34L137.539 92.8465H142.869L142.544 94.5049C143.235 93.8533 144.014 93.3696 144.883 93.0538C145.752 92.7379 146.65 92.5799 147.578 92.5799ZM158.159 92.8465H163.756L160.558 108.897H154.961L158.159 92.8465ZM161.742 91.0696C160.775 91.0696 159.995 90.8031 159.403 90.27C158.81 89.7369 158.514 89.0756 158.514 88.2858C158.514 87.3579 158.84 86.5978 159.492 86.0055C160.163 85.3935 161.041 85.0875 162.127 85.0875C163.114 85.0875 163.904 85.3441 164.496 85.8575C165.089 86.351 165.385 86.9927 165.385 87.7824C165.385 88.7498 165.049 89.5395 164.378 90.1515C163.707 90.7636 162.828 91.0696 161.742 91.0696ZM173.1 109.164C171.402 109.164 169.921 108.868 168.658 108.276C167.394 107.664 166.417 106.805 165.726 105.699C165.035 104.594 164.69 103.31 164.69 101.849C164.69 100.092 165.114 98.5127 165.963 97.1109C166.812 95.7092 167.987 94.6036 169.487 93.7941C170.988 92.9847 172.676 92.5799 174.551 92.5799C176.249 92.5799 177.73 92.8859 178.993 93.498C180.257 94.0903 181.234 94.9392 181.925 96.0448C182.616 97.1307 182.962 98.4041 182.962 99.8651C182.962 101.622 182.537 103.211 181.688 104.633C180.839 106.035 179.665 107.14 178.164 107.95C176.683 108.759 174.995 109.164 173.1 109.164ZM173.426 104.633C174.551 104.633 175.469 104.218 176.18 103.389C176.891 102.56 177.246 101.484 177.246 100.161C177.246 99.2136 176.98 98.4633 176.447 97.9105C175.913 97.3577 175.173 97.0813 174.225 97.0813C173.1 97.0813 172.182 97.4959 171.471 98.3251C170.761 99.1543 170.405 100.24 170.405 101.583C170.405 102.53 170.672 103.281 171.205 103.833C171.738 104.366 172.478 104.633 173.426 104.633ZM197.119 92.5799C198.876 92.5799 200.277 93.0538 201.324 94.0014C202.39 94.9293 202.923 96.2719 202.923 98.029C202.923 98.6805 202.854 99.3419 202.716 100.013L200.939 108.897H195.312L196.97 100.546C197.049 100.211 197.089 99.8552 197.089 99.4801C197.089 98.0586 196.349 97.3478 194.868 97.3478C193.881 97.3478 193.071 97.6539 192.439 98.2659C191.808 98.8582 191.363 99.7565 191.107 100.961L189.508 108.897H183.881L187.079 92.8465H192.41L192.084 94.5049C192.775 93.8533 193.555 93.3696 194.424 93.0538C195.292 92.7379 196.191 92.5799 197.119 92.5799Z" fill="white"/>
<g clip-path="url(#clip0)">
<path d="M137.164 37.3854L132.033 24.3764C135.759 23.2185 137.916 22.795 141.961 22.6113V36.6009C140.039 36.7053 138.985 36.8733 137.164 37.3854Z" fill="#1F4EB4"/>
<path d="M144.02 36.5729L143.98 22.624C147.882 22.8526 150.05 23.2154 153.894 24.4659L148.785 37.5269C146.952 36.9485 145.907 36.735 144.02 36.5729Z" fill="#FF1546"/>
<path d="M150.691 38.3L155.889 25.2256C159.584 26.8574 161.419 28.0592 164.484 30.4553L154.889 40.9149C153.389 39.7541 152.492 39.1595 150.691 38.3Z" fill="#FDB714"/>
<path d="M156.354 42.2878L166.082 31.959C168.936 34.7291 170.21 36.4529 172.079 39.7382L159.285 46.0793C158.297 44.4742 157.669 43.634 156.354 42.2878Z" fill="#0ACF83"/>
<path d="M160.219 47.9749L173.079 41.6338C174.672 45.1963 175.216 47.303 175.811 51.1781L161.485 52.4855C161.204 50.6768 160.926 49.6901 160.219 47.9749Z" fill="#FF4F6A"/>
<path d="M161.285 59.0885C161.606 57.3517 161.708 56.3424 161.685 54.4471L176.011 53.1396C176.189 56.9399 175.993 59.0995 175.145 63.0108L161.285 59.0885Z" fill="#FF7262"/>
<path d="M158.686 65.2337C159.625 63.7403 160.067 62.8424 160.685 61.1152L174.544 64.9722C173.304 68.6002 172.342 70.5183 170.146 73.732L158.686 65.2337Z" fill="#65BBD7"/>
<path d="M168.947 75.431L157.42 66.9326C156.153 68.3305 155.392 69.0428 153.955 70.2012L161.485 82.2296C164.819 79.8908 166.472 78.416 168.947 75.431Z" fill="#C0DF7E"/>
<path d="M159.619 83.341L152.089 71.3779C150.456 72.1769 149.499 72.572 147.691 73.143L150.357 87.0018C154.175 86.0701 156.204 85.2648 159.619 83.341Z" fill="#D91B5F"/>
<path d="M140.695 73.6669C142.594 73.7873 143.659 73.7513 145.559 73.5361L148.224 87.395C144.15 87.9891 141.912 88.0378 138.029 87.4604L140.695 73.6669Z" fill="#EC8134"/>
<path d="M126.436 83.6027L133.898 71.5742C135.59 72.4307 136.617 72.7952 138.563 73.2739L135.897 87.1327C131.868 86.1961 129.772 85.4556 126.436 83.6027Z" fill="#E01A83"/>
<path d="M117.041 75.8235L128.435 67.2598C129.706 68.7067 130.532 69.397 132.1 70.5284L124.57 82.4914C121.275 80.2866 119.587 78.871 117.041 75.8235Z" fill="#F28E8E"/>
<path d="M115.776 74.1897C113.509 70.8592 112.451 68.8876 111.111 65.103L124.838 61.2461C125.523 63.033 126.043 64.0001 127.103 65.6914L115.776 74.1897Z" fill="#FFA023"/>
<path d="M110.577 63.1415C109.695 59.3582 109.456 57.1636 109.644 53.0742L123.837 54.3817C123.8 56.4069 123.912 57.4596 124.303 59.2192L110.577 63.1415Z" fill="#5CC279"/>
<path d="M109.846 51.048L124.038 52.2247C124.432 50.4227 124.727 49.4196 125.438 47.6487L112.778 41.3076C111.095 44.9809 110.428 47.1075 109.846 51.048Z" fill="#2AA8D0"/>
<path d="M113.709 39.5419C115.693 36.1614 117.044 34.4515 119.839 31.6973L129.434 41.9607C128.136 43.3038 127.481 44.1504 126.436 45.8176L113.709 39.5419Z" fill="#70DF9C"/>
<path d="M131.101 40.5226C132.541 39.4724 133.407 38.9467 135.099 38.1692L129.902 25.1602C126.52 26.6637 124.663 27.7644 121.439 30.2592L131.101 40.5226Z" fill="#2A7ED0"/>
</g>
<path d="M55.527 74.4504V86H7.37399V23.8098H54.372V35.3594H21.6777V48.8635H50.5518V60.0578H21.6777V74.4504H55.527Z" fill="white"/>
<path d="M87.7283 87.0661C81.3908 87.0661 75.6456 85.7039 70.4927 82.9793C65.399 80.1956 61.3714 76.3753 58.41 71.5186C55.5078 66.6026 54.0567 61.0647 54.0567 54.9049C54.0567 48.7451 55.5078 43.2368 58.41 38.38C61.3714 33.4641 65.399 29.6438 70.4927 26.9193C75.6456 24.1355 81.4204 22.7436 87.8171 22.7436C93.2069 22.7436 98.0637 23.6913 102.387 25.5866C106.77 27.4819 110.442 30.2065 113.404 33.7602L104.164 42.2891C99.959 37.4324 94.7469 35.004 88.5278 35.004C84.678 35.004 81.2427 35.8628 78.222 37.5805C75.2014 39.2389 72.8322 41.5784 71.1146 44.5991C69.4562 47.6197 68.627 51.055 68.627 54.9049C68.627 58.7548 69.4562 62.19 71.1146 65.2107C72.8322 68.2314 75.2014 70.6005 78.222 72.3181C81.2427 73.9766 84.678 74.8058 88.5278 74.8058C94.7469 74.8058 99.959 72.3478 104.164 67.4318L113.404 75.9607C110.442 79.5737 106.77 82.3278 102.387 84.2231C98.0044 86.1185 93.1181 87.0661 87.7283 87.0661Z" fill="white"/>
<defs>
<clipPath id="clip0">
<rect width="66.6324" height="66.9409" fill="white" transform="translate(109.512 20.9766)"/>
</clipPath>
</defs>
</svg>
