<svg width="209" height="116" viewBox="0 0 209 116" fill="none" xmlns="http://www.w3.org/2000/svg">
<path d="M86.9284 93.6825C88.6263 93.6825 89.9886 94.1563 91.0152 95.104C92.0419 96.0516 92.5552 97.3941 92.5552 99.1315C92.5552 99.783 92.4861 100.444 92.3479 101.116L90.6006 110H84.9739L86.6323 101.708C86.7113 101.333 86.7507 100.958 86.7507 100.583C86.7507 99.8719 86.5731 99.3388 86.2177 98.9834C85.8821 98.6281 85.3885 98.4504 84.737 98.4504C82.9404 98.4504 81.8051 99.6053 81.3313 101.915L79.7025 110H74.0758L75.7638 101.708C75.8428 101.372 75.8823 101.007 75.8823 100.612C75.8823 99.9015 75.7046 99.3684 75.3492 99.0131C75.0136 98.6379 74.52 98.4504 73.8685 98.4504C72.0521 98.4504 70.907 99.6251 70.4332 101.974L68.834 110H63.2073L66.4057 93.949H71.7362L71.4105 95.5778C72.7333 94.3142 74.3324 93.6825 76.208 93.6825C77.2741 93.6825 78.2317 93.9095 79.0806 94.3636C79.9296 94.7979 80.5811 95.4396 81.0352 96.2885C81.7854 95.4396 82.6541 94.7979 83.6412 94.3636C84.6481 93.9095 85.7439 93.6825 86.9284 93.6825ZM107.005 93.6825C108.189 93.6825 109.295 93.9786 110.321 94.5709C111.368 95.1434 112.207 95.9825 112.839 97.0881C113.47 98.1937 113.786 99.4869 113.786 100.968C113.786 102.725 113.392 104.314 112.602 105.736C111.832 107.137 110.776 108.243 109.433 109.052C108.11 109.862 106.659 110.267 105.08 110.267C102.75 110.267 101.111 109.536 100.164 108.075L98.6238 115.745H92.9971L97.3504 93.949H102.681L102.355 95.4593C103.639 94.2748 105.188 93.6825 107.005 93.6825ZM104.28 105.736C105.406 105.736 106.324 105.321 107.034 104.492C107.745 103.663 108.1 102.587 108.1 101.264C108.1 100.316 107.824 99.5659 107.271 99.0131C106.738 98.4603 105.998 98.1839 105.05 98.1839C103.925 98.1839 103.007 98.5985 102.296 99.4277C101.585 100.257 101.23 101.343 101.23 102.685C101.23 103.633 101.496 104.383 102.029 104.936C102.582 105.469 103.332 105.736 104.28 105.736ZM134.911 93.949L131.712 110H126.382L126.708 108.49C125.424 109.674 123.874 110.267 122.058 110.267C120.873 110.267 119.758 109.98 118.712 109.408C117.685 108.815 116.856 107.966 116.224 106.861C115.592 105.755 115.276 104.452 115.276 102.952C115.276 101.214 115.661 99.6448 116.431 98.2431C117.221 96.8216 118.277 95.7061 119.6 94.8967C120.943 94.0872 122.404 93.6825 123.983 93.6825C126.313 93.6825 127.951 94.413 128.899 95.8739L129.284 93.949H134.911ZM124.013 105.736C125.138 105.736 126.056 105.321 126.767 104.492C127.477 103.663 127.833 102.587 127.833 101.264C127.833 100.316 127.556 99.5659 127.004 99.0131C126.471 98.4603 125.73 98.1839 124.783 98.1839C123.657 98.1839 122.739 98.5985 122.028 99.4277C121.318 100.257 120.962 101.343 120.962 102.685C120.962 103.633 121.229 104.383 121.762 104.936C122.315 105.469 123.065 105.736 124.013 105.736ZM148.572 93.6825C150.329 93.6825 151.731 94.1563 152.777 95.104C153.844 96.0319 154.377 97.3744 154.377 99.1315C154.377 99.783 154.308 100.444 154.169 101.116L152.392 110H146.766L148.424 101.649C148.503 101.313 148.543 100.958 148.543 100.583C148.543 99.1611 147.802 98.4504 146.321 98.4504C145.334 98.4504 144.525 98.7564 143.893 99.3684C143.261 99.9607 142.817 100.859 142.56 102.063L140.961 110H135.335L138.533 93.949H143.863L143.538 95.6074C144.229 94.9559 145.009 94.4722 145.877 94.1563C146.746 93.8404 147.644 93.6825 148.572 93.6825ZM159.153 93.949H164.75L161.552 110H155.955L159.153 93.949ZM162.736 92.1721C161.769 92.1721 160.989 91.9056 160.397 91.3725C159.805 90.8395 159.508 90.1781 159.508 89.3884C159.508 88.4605 159.834 87.7004 160.486 87.1081C161.157 86.496 162.036 86.19 163.121 86.19C164.109 86.19 164.898 86.4467 165.491 86.96C166.083 87.4536 166.379 88.0952 166.379 88.8849C166.379 89.8523 166.043 90.6421 165.372 91.2541C164.701 91.8661 163.822 92.1721 162.736 92.1721ZM174.094 110.267C172.396 110.267 170.916 109.97 169.652 109.378C168.389 108.766 167.411 107.907 166.72 106.802C166.029 105.696 165.684 104.413 165.684 102.952C165.684 101.195 166.108 99.6152 166.957 98.2135C167.806 96.8117 168.981 95.7061 170.481 94.8967C171.982 94.0872 173.67 93.6825 175.545 93.6825C177.243 93.6825 178.724 93.9885 179.988 94.6005C181.251 95.1928 182.228 96.0417 182.919 97.1474C183.61 98.2332 183.956 99.5066 183.956 100.968C183.956 102.725 183.531 104.314 182.682 105.736C181.833 107.137 180.659 108.243 179.158 109.052C177.678 109.862 175.99 110.267 174.094 110.267ZM174.42 105.736C175.545 105.736 176.463 105.321 177.174 104.492C177.885 103.663 178.24 102.587 178.24 101.264C178.24 100.316 177.974 99.5659 177.441 99.0131C176.908 98.4603 176.167 98.1839 175.22 98.1839C174.094 98.1839 173.176 98.5985 172.465 99.4277C171.755 100.257 171.399 101.343 171.399 102.685C171.399 103.633 171.666 104.383 172.199 104.936C172.732 105.469 173.472 105.736 174.42 105.736ZM198.113 93.6825C199.87 93.6825 201.272 94.1563 202.318 95.104C203.384 96.0319 203.917 97.3744 203.917 99.1315C203.917 99.783 203.848 100.444 203.71 101.116L201.933 110H196.306L197.965 101.649C198.044 101.313 198.083 100.958 198.083 100.583C198.083 99.1611 197.343 98.4504 195.862 98.4504C194.875 98.4504 194.065 98.7564 193.434 99.3684C192.802 99.9607 192.358 100.859 192.101 102.063L190.502 110H184.875L188.073 93.949H193.404L193.078 95.6074C193.769 94.9559 194.549 94.4722 195.418 94.1563C196.286 93.8404 197.185 93.6825 198.113 93.6825Z" fill="white"/>
<g clip-path="url(#clip0)">
<path d="M137.164 37.3854L132.033 24.3764C135.759 23.2185 137.916 22.795 141.961 22.6113V36.6009C140.039 36.7053 138.985 36.8733 137.164 37.3854Z" fill="#1F4EB4"/>
<path d="M144.02 36.5729L143.98 22.624C147.882 22.8526 150.05 23.2154 153.894 24.4659L148.785 37.5269C146.952 36.9485 145.907 36.735 144.02 36.5729Z" fill="#FF1546"/>
<path d="M150.691 38.3L155.889 25.2256C159.584 26.8574 161.419 28.0592 164.484 30.4553L154.889 40.9149C153.389 39.7541 152.492 39.1595 150.691 38.3Z" fill="#FDB714"/>
<path d="M156.354 42.2878L166.082 31.959C168.936 34.7291 170.21 36.4529 172.079 39.7382L159.285 46.0793C158.297 44.4742 157.669 43.634 156.354 42.2878Z" fill="#0ACF83"/>
<path d="M160.219 47.9749L173.079 41.6338C174.672 45.1963 175.217 47.303 175.811 51.1781L161.485 52.4855C161.204 50.6768 160.926 49.6901 160.219 47.9749Z" fill="#FF4F6A"/>
<path d="M161.285 59.0885C161.606 57.3517 161.708 56.3424 161.685 54.4471L176.011 53.1396C176.189 56.9399 175.993 59.0995 175.145 63.0108L161.285 59.0885Z" fill="#FF7262"/>
<path d="M158.686 65.2337C159.625 63.7403 160.067 62.8424 160.685 61.1152L174.544 64.9722C173.304 68.6002 172.342 70.5183 170.146 73.732L158.686 65.2337Z" fill="#65BBD7"/>
<path d="M168.947 75.431L157.42 66.9326C156.153 68.3305 155.392 69.0428 153.955 70.2012L161.485 82.2296C164.819 79.8908 166.472 78.416 168.947 75.431Z" fill="#C0DF7E"/>
<path d="M159.619 83.341L152.089 71.3779C150.456 72.1769 149.499 72.572 147.691 73.143L150.357 87.0018C154.175 86.0701 156.204 85.2648 159.619 83.341Z" fill="#D91B5F"/>
<path d="M140.695 73.6669C142.594 73.7873 143.659 73.7513 145.559 73.5361L148.224 87.395C144.15 87.9891 141.912 88.0378 138.029 87.4604L140.695 73.6669Z" fill="#EC8134"/>
<path d="M126.436 83.6027L133.898 71.5742C135.59 72.4307 136.617 72.7952 138.563 73.2739L135.897 87.1327C131.868 86.1961 129.772 85.4556 126.436 83.6027Z" fill="#E01A83"/>
<path d="M117.041 75.8235L128.435 67.2598C129.706 68.7067 130.532 69.397 132.1 70.5284L124.57 82.4914C121.275 80.2866 119.587 78.871 117.041 75.8235Z" fill="#F28E8E"/>
<path d="M115.776 74.1897C113.509 70.8592 112.451 68.8876 111.111 65.103L124.838 61.2461C125.523 63.033 126.043 64.0001 127.103 65.6914L115.776 74.1897Z" fill="#FFA023"/>
<path d="M110.577 63.1415C109.695 59.3582 109.456 57.1636 109.644 53.0742L123.837 54.3817C123.8 56.4069 123.912 57.4596 124.303 59.2192L110.577 63.1415Z" fill="#5CC279"/>
<path d="M109.846 51.048L124.038 52.2247C124.432 50.4227 124.727 49.4196 125.438 47.6487L112.778 41.3076C111.095 44.9809 110.428 47.1075 109.846 51.048Z" fill="#2AA8D0"/>
<path d="M113.709 39.5419C115.693 36.1614 117.044 34.4515 119.839 31.6973L129.434 41.9607C128.136 43.3038 127.481 44.1504 126.436 45.8176L113.709 39.5419Z" fill="#70DF9C"/>
<path d="M131.101 40.5226C132.541 39.4724 133.407 38.9467 135.099 38.1692L129.902 25.1602C126.52 26.6637 124.663 27.7644 121.439 30.2592L131.101 40.5226Z" fill="#2A7ED0"/>
</g>
<path d="M55.527 74.4504V86H7.37399V23.8098H54.372V35.3594H21.6777V48.8635H50.5518V60.0578H21.6777V74.4504H55.527Z" fill="white"/>
<path d="M87.7283 87.0661C81.3908 87.0661 75.6456 85.7039 70.4927 82.9793C65.399 80.1956 61.3714 76.3753 58.41 71.5186C55.5078 66.6026 54.0567 61.0647 54.0567 54.9049C54.0567 48.7451 55.5078 43.2368 58.41 38.38C61.3714 33.4641 65.399 29.6438 70.4927 26.9193C75.6456 24.1355 81.4204 22.7436 87.8171 22.7436C93.2069 22.7436 98.0637 23.6913 102.387 25.5866C106.77 27.4819 110.442 30.2065 113.404 33.7602L104.164 42.2891C99.959 37.4324 94.7469 35.004 88.5278 35.004C84.678 35.004 81.2427 35.8628 78.222 37.5805C75.2014 39.2389 72.8322 41.5784 71.1146 44.5991C69.4562 47.6197 68.627 51.055 68.627 54.9049C68.627 58.7548 69.4562 62.19 71.1146 65.2107C72.8322 68.2314 75.2014 70.6005 78.222 72.3181C81.2427 73.9766 84.678 74.8058 88.5278 74.8058C94.7469 74.8058 99.959 72.3478 104.164 67.4318L113.404 75.9607C110.442 79.5737 106.77 82.3278 102.387 84.2231C98.0044 86.1185 93.1181 87.0661 87.7283 87.0661Z" fill="white"/>
<defs>
<clipPath id="clip0">
<rect width="66.6324" height="66.9409" fill="white" transform="translate(109.512 20.9766)"/>
</clipPath>
</defs>
</svg>
