<svg width="112" height="108" viewBox="0 0 112 108" fill="none" xmlns="http://www.w3.org/2000/svg">
<g filter="url(#filter0_d)">
<path d="M47.6542 0.328058C47.7578 0.464092 48.3103 0.702152 48.8628 0.804178C50.7966 1.21228 51.1074 1.65439 64.3673 24.5421L65.4723 26.4806L62.1573 28.3851C60.3617 29.4393 58.7387 30.2896 58.5315 30.2896C58.3589 30.2896 58.2208 30.4256 58.2208 30.6296C58.2208 30.8337 62.5371 30.9697 70.4448 30.9697H82.6343L88.7463 20.5291C92.0958 14.8157 94.7892 10.0545 94.7201 10.0205C94.6511 9.95247 92.9245 10.8707 90.8527 12.061L87.0888 14.2375L83.6011 8.21803C79.1811 0.634136 79.2847 0.804178 78.3524 0.396076C77.351 -0.0460358 47.378 -0.114052 47.6542 0.328058Z" fill="white"/>
<path d="M38.7813 1.04305C35.5699 1.85925 32.911 3.93377 30.8391 7.2666C28.4565 11.0756 20.9287 23.9308 21.0323 23.9988C21.6539 24.5089 42.4071 36.1058 42.4761 36.0378C42.5107 35.9698 45.5494 30.8005 49.2097 24.5769L55.8397 13.2861L53.1808 8.76297C51.7305 6.31436 50.2456 3.93377 49.8658 3.55967C49.4859 3.15157 48.2773 2.40338 47.1378 1.89326C44.8242 0.873002 41.0258 0.498909 38.7813 1.04305Z" fill="white"/>
<path d="M85.4329 35.8678C79.7698 39.0986 75.0736 41.8193 74.97 41.9213C74.8319 42.0573 86.02 61.5442 87.7811 64.2309C88.299 65.0131 88.3681 65.0471 94.0657 64.911C99.6252 64.809 99.9015 64.775 101.455 63.8908C103.389 62.7685 105.565 60.3879 106.635 58.2454C107.74 56.0688 107.913 51.2736 107.015 48.825C106.221 46.6485 96.5174 29.9843 96.034 29.9843C95.8613 29.9843 91.0615 32.637 85.4329 35.8678Z" fill="white"/>
<path d="M4.35376 34.9488C4.38829 35.1189 5.87313 36.0711 7.66875 37.0914C9.46436 38.1116 11.1219 39.0299 11.2945 39.1659C11.5362 39.3019 10.1205 42.0226 7.8414 45.8656C3.76673 52.7693 3.45595 53.7215 4.52642 55.796C5.52782 57.7005 18.5806 79.772 18.9259 80.1121C19.1331 80.3162 19.1676 79.806 19.0295 78.7178C18.8223 77.3574 18.9259 76.6433 19.4439 75.487C19.9963 74.2627 32.8074 52.1911 33.2218 51.749C33.2908 51.681 35.0174 52.5652 37.0202 53.7215C39.0575 54.8778 40.7495 55.762 40.8186 55.694C40.9222 55.626 38.1942 50.8648 34.8447 45.1514L28.6982 34.7448L16.5432 34.7108C9.8442 34.7108 4.35376 34.8128 4.35376 34.9488Z" fill="white"/>
<path d="M65.163 68.6175C60.4323 76.7795 59.2237 79.1261 59.4999 79.5682C59.6726 79.8743 62.366 84.4314 65.4393 89.7367C68.5471 95.0081 71.206 99.3271 71.3786 99.3271C71.5513 99.3271 71.6894 97.4907 71.6894 95.2801V91.1991L79.8042 91.0971C87.6428 90.9951 87.919 90.9611 88.6787 90.2469C89.4039 89.5327 104.149 64.5704 103.976 64.3664C103.907 64.2984 103.147 64.7745 102.249 65.3866L100.626 66.5089L86.1579 66.611L71.6894 66.713V62.4279C71.6894 60.0813 71.5858 58.1768 71.4477 58.1768C71.275 58.2108 68.478 62.87 65.163 68.6175Z" fill="white"/>
<path d="M26.3831 66.9174C25.2436 68.2437 20.9617 76.0997 20.7545 77.256C20.4438 78.8884 21.1344 82.0512 22.2048 84.1257C23.3444 86.3703 25.7615 88.6488 28.1097 89.7371L30.0779 90.6553L41.7494 90.7573L53.3864 90.8594V78.5823V66.3392H40.161C27.9715 66.3392 26.8665 66.3732 26.3831 66.9174Z" fill="white"/>
</g>
<g filter="url(#filter1_d)">
<path d="M56.2784 30.5875C55.5885 30.7211 54.7876 31.2187 54.4784 31.7237C54.2167 32.1396 54.0819 32.8748 54.1533 33.5135C54.2009 33.9516 54.185 34.0185 54.0819 33.9813C53.8916 33.9145 53.8599 34.1596 53.9868 34.7165C54.1295 35.3552 54.2326 35.6077 54.3753 35.6894C54.4388 35.7191 54.5339 35.9345 54.5815 36.1572C54.6291 36.38 54.748 36.7439 54.8432 36.9593C55.0017 37.3158 55.0097 37.39 54.9224 37.7688C54.7401 38.5782 54.2643 38.853 52.1075 39.3951C50.926 39.6922 50.4899 39.9298 50.2361 40.4051C50.022 40.821 49.8714 41.7567 49.6732 43.8064C49.4194 46.4502 49.2132 47.6681 48.8723 48.5221C48.7454 48.834 48.5075 49.1237 47.8256 49.8069C47.2626 50.3713 46.7948 50.9283 46.5489 51.3144C45.9067 52.3244 44.6459 53.3864 44.075 53.3864C43.9402 53.3864 43.623 53.3047 43.3851 53.2007C43.1393 53.1042 42.7111 52.9705 42.4415 52.9111C41.9737 52.8071 41.9102 52.8146 41.4662 52.9557C40.8715 53.1413 40.816 53.1859 41.03 53.3641L41.1966 53.5126L41.0142 53.624C40.8477 53.728 40.7367 53.9731 40.5067 54.738C40.475 54.8271 40.6256 54.9831 40.9983 55.2504C41.601 55.696 41.593 55.7108 40.8001 55.993L40.356 56.149L39.7613 55.993C39.2539 55.8594 39.1508 55.8594 39.0556 55.9485C38.9605 56.0376 38.9763 56.0822 39.1904 56.2752C39.3252 56.4015 39.4917 56.5055 39.5631 56.5055C39.6583 56.5055 39.682 56.5426 39.6503 56.6317C39.571 56.8174 39.7455 56.8768 40.3957 56.8768C40.8239 56.8768 41.1411 56.8248 41.5455 56.6911C41.8547 56.5872 42.156 56.5055 42.2274 56.5055C42.2908 56.5055 42.6794 56.3569 43.0838 56.1713C43.4882 55.9856 43.8529 55.8371 43.9005 55.8371C43.9402 55.8371 43.8688 55.9633 43.7261 56.1119C43.3613 56.498 43.171 56.9213 43.171 57.3818C43.171 57.8719 43.3692 58.2507 43.9005 58.7779C44.6776 59.5503 45.3833 59.6765 48.3172 59.5503C49.4353 59.5057 50.6485 59.4389 51.0212 59.3943C52.5753 59.2309 54.7084 58.7631 56.1515 58.2729L56.8097 58.0501L57.896 58.3918C60.4889 59.1938 61.9083 59.4166 65.2942 59.5503C68.1884 59.6691 68.9496 59.5503 69.7029 58.8373C69.8853 58.674 70.1311 58.3695 70.258 58.1764C70.6624 57.5229 70.5276 56.7208 69.9012 56.0822C69.7743 55.9485 69.7029 55.8371 69.7505 55.8371C69.7902 55.8371 70.1232 55.9708 70.4721 56.1267C71.4474 56.5649 72.621 56.8768 73.2712 56.8768C73.8738 56.8768 74.0641 56.8025 73.9928 56.6243C73.9611 56.5426 73.9848 56.5055 74.0879 56.5055C74.2624 56.5055 74.6509 56.1787 74.6509 56.0302C74.6509 55.8594 74.4923 55.8519 73.9056 56.0005C73.5963 56.0747 73.2712 56.1119 73.1523 56.0822C72.9223 56.0302 72.1135 55.696 72.1135 55.6514C72.1135 55.6366 72.3435 55.4658 72.6289 55.2801C72.9144 55.087 73.1443 54.8791 73.1443 54.8123C73.1443 54.7528 73.065 54.4706 72.9699 54.1959C72.8509 53.8468 72.7399 53.6686 72.6131 53.6018C72.4386 53.5126 72.4307 53.5126 72.5893 53.4087C72.843 53.2379 72.7716 53.1265 72.3355 52.9854C71.7646 52.7997 71.4236 52.822 70.6228 53.0968C69.584 53.4458 69.4651 53.4458 68.9021 53.1042C68.236 52.7032 67.5779 52.0719 67.2052 51.4778C66.777 50.7946 66.5946 50.5718 65.7382 49.7103C65.3338 49.3019 64.9453 48.8637 64.8739 48.7301C64.5171 48.0914 64.2633 46.7547 64.0255 44.2223C63.6845 40.717 63.5497 40.2343 62.8123 39.8036C62.6695 39.7219 62.0827 39.5362 61.5198 39.3951C59.2361 38.8233 58.7127 38.4743 58.7127 37.5088C58.7127 37.3083 58.7841 36.9964 58.8634 36.8182C58.9506 36.64 59.0458 36.3206 59.0775 36.1053C59.1092 35.8305 59.1647 35.7117 59.2678 35.6894C59.3629 35.6671 59.4581 35.474 59.577 35.0507C59.7673 34.4046 59.7753 33.9665 59.6008 33.9665C59.5215 33.9665 59.4898 33.7585 59.4819 33.1124C59.466 32.4292 59.4264 32.1916 59.2995 31.9242C58.9903 31.293 58.1656 30.7434 57.2934 30.5875C56.8176 30.5058 56.7462 30.5058 56.2784 30.5875ZM52.5119 47.2374C52.7974 49.0717 52.7974 48.9974 52.5357 49.7252C52.2899 50.4307 51.3225 52.5398 51.156 52.7403C51.0687 52.8517 51.0132 52.8443 50.585 52.7106C50.03 52.5324 49.5146 52.5695 49.2608 52.8071C49.1339 52.926 49.1102 53.0225 49.1419 53.2824C49.1815 53.6537 49.2291 53.6389 48.0476 53.7206C47.6987 53.7503 47.2626 53.832 47.0644 53.9137C46.4062 54.1884 46.5014 54.077 47.7304 53.1636C50.2044 51.3219 51.1084 50.0668 51.6476 47.7052C51.8934 46.6581 51.8696 46.7027 52.163 46.7027H52.4326L52.5119 47.2374ZM61.9638 47.5344C62.5268 50.1039 63.4704 51.3961 66.3171 53.4607C66.666 53.7206 66.9594 53.9582 66.9594 53.9879C66.9594 54.0176 66.7928 53.9805 66.5867 53.9062C66.3726 53.832 65.9602 53.7503 65.651 53.728C64.3823 53.6166 64.4299 53.6315 64.525 53.379C64.6519 53.0671 64.4774 52.7849 64.0572 52.6512C63.7717 52.5546 63.6686 52.5546 63.2642 52.6586C63.0026 52.718 62.7409 52.7923 62.6695 52.822C62.5744 52.8591 62.4713 52.7329 62.2096 52.1982C61.2819 50.3267 60.933 49.4281 60.933 48.9157C60.933 48.5741 61.1391 47.0072 61.2105 46.7918C61.2343 46.7472 61.3691 46.7027 61.5118 46.7027H61.7814L61.9638 47.5344ZM42.3384 53.5498C42.5842 53.6537 42.6556 53.8765 42.5446 54.1587C42.497 54.2701 42.4574 54.4558 42.4574 54.5746C42.4574 54.7677 42.4177 54.8048 42.1322 54.8717C41.8547 54.9459 41.7675 54.9311 41.5217 54.8123C41.1331 54.6192 41.1411 54.3592 41.5534 53.8468C41.8785 53.4532 41.9974 53.4012 42.3384 53.5498ZM71.8756 53.5423C71.8756 53.5869 72.0025 53.7577 72.1611 53.9211C72.5258 54.2998 72.5179 54.6117 72.1294 54.8197C71.9232 54.9311 71.8122 54.9459 71.5822 54.8939C71.3285 54.842 71.273 54.79 71.2175 54.5746C71.1858 54.4335 71.1223 54.2181 71.0827 54.0993C70.9954 53.8468 71.0985 53.6315 71.3443 53.5349C71.5902 53.4384 71.8756 53.4458 71.8756 53.5423Z" fill="white"/>
</g>
<defs>
<filter id="filter0_d" x="0" y="0.0283203" width="111.59" height="107.299" filterUnits="userSpaceOnUse" color-interpolation-filters="sRGB">
<feFlood flood-opacity="0" result="BackgroundImageFix"/>
<feColorMatrix in="SourceAlpha" type="matrix" values="0 0 0 0 0 0 0 0 0 0 0 0 0 0 0 0 0 0 127 0"/>
<feOffset dy="4"/>
<feGaussianBlur stdDeviation="2"/>
<feColorMatrix type="matrix" values="0 0 0 0 0 0 0 0 0 0 0 0 0 0 0 0 0 0 0.25 0"/>
<feBlend mode="normal" in2="BackgroundImageFix" result="effect1_dropShadow"/>
<feBlend mode="normal" in="SourceGraphic" in2="effect1_dropShadow" result="shape"/>
</filter>
<filter id="filter1_d" x="35" y="30.5264" width="43.6509" height="37.0666" filterUnits="userSpaceOnUse" color-interpolation-filters="sRGB">
<feFlood flood-opacity="0" result="BackgroundImageFix"/>
<feColorMatrix in="SourceAlpha" type="matrix" values="0 0 0 0 0 0 0 0 0 0 0 0 0 0 0 0 0 0 127 0"/>
<feOffset dy="4"/>
<feGaussianBlur stdDeviation="2"/>
<feColorMatrix type="matrix" values="0 0 0 0 0 0 0 0 0 0 0 0 0 0 0 0 0 0 0.25 0"/>
<feBlend mode="normal" in2="BackgroundImageFix" result="effect1_dropShadow"/>
<feBlend mode="normal" in="SourceGraphic" in2="effect1_dropShadow" result="shape"/>
</filter>
</defs>
</svg>
